<?xml version="1.0" standalone="no"?>
<!DOCTYPE svg PUBLIC "-//W3C//DTD SVG 20010904//EN"
 "http://www.w3.org/TR/2001/REC-SVG-20010904/DTD/svg10.dtd">
<svg version="1.0" xmlns="http://www.w3.org/2000/svg"
 width="1480.000000pt" height="1480.000000pt" viewBox="0 0 1480.000000 1480.000000"
 preserveAspectRatio="xMidYMid meet">
<metadata>
Created by potrace 1.11, written by Peter Selinger 2001-2013
</metadata>
<g transform="translate(0.000000,1480.000000) scale(0.100000,-0.100000)"
fill="#000000" stroke="none">
<path d="M0 7400 l0 -7400 7400 0 7400 0 0 7400 0 7400 -7400 0 -7400 0 0
-7400z m8390 5525 c189 -30 294 -62 447 -137 48 -23 96 -55 114 -76 52 -59 46
-78 -163 -487 -286 -560 -391 -735 -450 -754 -51 -17 -134 15 -159 61 -10 19
-44 355 -53 538 -3 58 -11 193 -17 300 -21 373 14 525 131 558 47 14 43 14
150 -3z m3110 -1909 c50 -33 196 -209 255 -308 80 -134 120 -234 120 -301 0
-53 -3 -61 -28 -82 -56 -44 -853 -375 -1072 -445 -148 -47 -183 -42 -224 30
-37 66 -30 95 56 222 198 291 485 670 591 780 133 138 210 165 302 104z
m-4130 -231 c896 -159 1920 -987 2575 -2080 735 -1228 721 -2439 -33 -2826
-468 -240 -1175 -103 -1897 368 -838 547 -1558 1466 -1878 2400 -294 856 -212
1556 224 1923 133 111 321 195 506 225 112 18 372 13 503 -10z m-2024 -1640
c124 -1013 754 -2194 1561 -2927 219 -199 381 -327 603 -475 339 -226 727
-414 1080 -523 74 -23 144 -45 154 -49 63 -24 -1605 -504 -3499 -1006 -695
-184 -793 -207 -930 -212 -225 -9 -416 53 -550 178 -77 72 -118 135 -153 231
-24 66 -26 87 -26 223 -1 168 12 248 90 560 87 348 120 453 384 1205 503 1436
879 2391 1236 3134 l19 39 7 -124 c4 -68 15 -182 24 -254z m7222 -1939 c91
-38 112 -100 92 -268 -27 -231 -113 -485 -187 -554 -50 -46 -83 -37 -400 105
-365 163 -634 293 -754 364 -123 72 -140 105 -100 194 11 24 32 48 48 56 30
16 403 70 598 87 66 6 170 17 230 25 155 19 416 14 473 -9z m-9320 -2738 c14
-147 40 -245 93 -354 111 -226 373 -425 634 -479 58 -12 60 -13 57 -41 -10
-101 -72 -183 -172 -228 -79 -35 -132 -40 -238 -22 -273 47 -488 209 -618 464
-114 223 -138 433 -67 579 42 86 147 171 238 194 62 15 60 19 73 -113z"/>
</g>
</svg>
